# xmcd
#
# Track frame offsets:
#	150
#	13662
#	30744
#	40902
#	50541
#	66939
#	86229
#	108757
#
# Disc length: 1670 seconds
#
# Revision: 1
# Processed by: cddbd v1.4PL0 Copyright (c) Steve Scherf et al.
# Submitted via: audiograbber 1.81.03
#
DISCID=64068408
DTITLE=Mr. Airplane Man - Mr. Airplane Man
DYEAR=1999
DGENRE=
TTITLE0=Baby
TTITLE1=Moanin' For My Baby
TTITLE2=You Left Me Cold
TTITLE3=Highway
TTITLE4=My Hand
TTITLE5=Sun Sinkin' Low
TTITLE6=Rain So Hard
TTITLE7=Jesus On The Mainline
EXTD=
EXTT0=
EXTT1=written by Howlin Wolf
EXTT2=
EXTT3=
EXTT4=
EXTT5=written by Mississippi Fred McDowell
EXTT6=
EXTT7=
PLAYORDER=
